<svg xmlns="http://www.w3.org/2000/svg" height="511pt" version="1.1" viewBox="-3 0 511 511.99965" width="511pt">
<g id="surface1">
<path d="M 498.027344 296.1875 L 438.207031 225.949219 C 436.191406 223.578125 432.328125 225.339844 432.792969 228.417969 L 438.210938 264.261719 C 395.835938 244.5 355.726562 222.414062 318.785156 198.457031 C 274.359375 169.648438 233.886719 137.867188 198.5 104 C 159.785156 66.949219 133.722656 33.339844 120.667969 13.785156 C 116.324219 7.28125 107.507812 5.539062 101.035156 9.925781 C 94.640625 14.261719 92.9375 22.933594 97.226562 29.363281 C 109.289062 47.453125 134.953125 82.132812 178.410156 123.8125 C 215.082031 158.984375 256.984375 191.957031 302.953125 221.808594 C 341.921875 247.109375 384.28125 270.382812 429.054688 291.109375 L 403.492188 316.230469 C 401.269531 318.414062 403.300781 322.140625 406.339844 321.457031 L 496.347656 301.210938 C 498.621094 300.699219 499.535156 297.957031 498.027344 296.1875 Z M 498.027344 296.1875 " style=" stroke:none;fill-rule:nonzero;fill:rgb(52.941176%,85.882353%,99.215686%);fill-opacity:1;" />
<path d="M 59.335938 481.222656 L 59.335938 143.230469 C 59.335938 140.085938 61.886719 137.535156 65.03125 137.535156 L 110.433594 137.535156 C 113.578125 137.535156 116.128906 140.082031 116.128906 143.230469 L 116.128906 481.222656 Z M 59.335938 481.222656 " style=" stroke:none;fill-rule:nonzero;fill:rgb(99.215686%,44.313725%,36.078431%);fill-opacity:1;" />
<path d="M 166.328125 481.222656 L 166.328125 226.84375 C 166.328125 223.699219 168.878906 221.148438 172.023438 221.148438 L 217.425781 221.148438 C 220.570312 221.148438 223.121094 223.699219 223.121094 226.84375 L 223.121094 481.222656 Z M 166.328125 481.222656 " style=" stroke:none;fill-rule:nonzero;fill:rgb(96.078431%,70.980392%,33.72549%);fill-opacity:1;" />
<path d="M 380.3125 481.222656 L 380.3125 394.726562 C 380.3125 391.578125 382.859375 389.027344 386.007812 389.027344 L 431.410156 389.027344 C 434.554688 389.027344 437.105469 391.578125 437.105469 394.726562 L 437.105469 481.222656 Z M 380.3125 481.222656 " style=" stroke:none;fill-rule:nonzero;fill:rgb(32.941176%,85.490196%,76.862745%);fill-opacity:1;" />
<path d="M 273.320312 481.222656 L 273.320312 310.894531 C 273.320312 307.75 275.867188 305.199219 279.015625 305.199219 L 324.417969 305.199219 C 327.5625 305.199219 330.113281 307.746094 330.113281 310.894531 L 330.113281 481.222656 Z M 273.320312 481.222656 " style=" stroke:none;fill-rule:nonzero;fill:rgb(59.215686%,70.588235%,98.823529%);fill-opacity:1;" />
<path d="M 481.832031 504.5 L 14.609375 504.5 C 10.957031 504.5 8 501.542969 8 497.890625 L 8 473.933594 C 8 470.285156 10.957031 467.328125 14.609375 467.328125 L 481.832031 467.328125 C 485.484375 467.328125 488.441406 470.285156 488.441406 473.933594 L 488.441406 497.890625 C 488.441406 501.539062 485.480469 504.5 481.832031 504.5 Z M 481.832031 504.5 " style=" stroke:none;fill-rule:nonzero;fill:rgb(23.529412%,33.72549%,40%);fill-opacity:1;" />
<path d="M 481.832031 467.328125 L 436.4375 467.328125 L 436.4375 504.5 L 481.832031 504.5 C 485.480469 504.5 488.441406 501.539062 488.441406 497.890625 L 488.441406 473.933594 C 488.441406 470.285156 485.480469 467.328125 481.832031 467.328125 Z M 481.832031 467.328125 " style=" stroke:none;fill-rule:nonzero;fill:rgb(9.803922%,26.666667%,31.764706%);fill-opacity:1;" />
<path d="M 503.738281 291.324219 L 443.917969 221.085938 C 440.820312 217.445312 435.8125 216.332031 431.460938 218.316406 C 427.109375 220.300781 424.664062 224.808594 425.378906 229.539062 L 428.691406 251.441406 C 391.273438 233.382812 355.730469 213.476562 322.867188 192.164062 C 278.832031 163.609375 238.738281 132.125 203.6875 98.582031 C 160.222656 56.984375 135.511719 22.511719 126.90625 9.617188 C 123.683594 4.792969 118.769531 1.523438 113.074219 0.40625 C 107.386719 -0.703125 101.617188 0.472656 96.828125 3.71875 C 87.0625 10.339844 84.441406 23.710938 90.984375 33.523438 C 102.617188 50.964844 128.769531 86.59375 173.21875 129.222656 C 210.230469 164.722656 252.503906 197.988281 298.871094 228.097656 C 335.222656 251.703125 374.621094 273.617188 416.105469 293.320312 L 398.238281 310.882812 C 394.824219 314.234375 394.070312 319.308594 396.359375 323.507812 C 398.257812 326.988281 401.792969 329.039062 405.609375 329.039062 C 406.394531 329.039062 407.191406 328.953125 407.988281 328.773438 L 497.996094 308.527344 C 501.648438 307.707031 504.535156 305.097656 505.722656 301.546875 C 506.90625 297.992188 506.164062 294.171875 503.738281 291.324219 Z M 419.773438 310.75 L 434.3125 296.457031 C 436.070312 294.730469 436.867188 292.253906 436.445312 289.828125 C 436.027344 287.402344 434.441406 285.335938 432.207031 284.304688 C 387.761719 263.730469 345.648438 240.585938 307.039062 215.515625 C 261.460938 185.917969 219.933594 153.246094 183.601562 118.398438 C 140.183594 76.757812 114.757812 42.132812 103.464844 25.199219 C 101.476562 22.214844 102.273438 18.148438 105.246094 16.132812 C 106.34375 15.390625 107.613281 15.003906 108.914062 15.003906 C 109.335938 15.003906 109.765625 15.046875 110.195312 15.128906 C 111.941406 15.46875 113.445312 16.472656 114.429688 17.949219 C 123.3125 31.25 148.773438 66.792969 193.316406 109.421875 C 229.042969 143.609375 269.882812 175.683594 314.703125 204.75 C 351.847656 228.835938 392.335938 251.144531 435.042969 271.058594 C 437.546875 272.226562 440.492188 271.921875 442.703125 270.269531 C 444.917969 268.613281 446.039062 265.875 445.628906 263.140625 L 442.519531 242.578125 L 487.589844 295.496094 Z M 492.316406 301.050781 C 492.316406 301.046875 492.316406 301.046875 492.3125 301.046875 Z M 492.316406 301.050781 " style=" stroke:none;fill-rule:nonzero;fill:rgb(0%,0%,0%);fill-opacity:1;" />
<path d="M 481.832031 459.828125 L 444.605469 459.828125 L 444.605469 447.167969 C 444.605469 443.023438 441.246094 439.667969 437.105469 439.667969 C 432.960938 439.667969 429.605469 443.023438 429.605469 447.167969 L 429.605469 459.828125 L 387.808594 459.828125 L 387.808594 396.53125 L 429.605469 396.53125 L 429.605469 412.066406 C 429.605469 416.210938 432.960938 419.566406 437.105469 419.566406 C 441.246094 419.566406 444.605469 416.210938 444.605469 412.066406 L 444.605469 394.726562 C 444.605469 387.449219 438.683594 381.53125 431.410156 381.53125 L 386.007812 381.53125 C 378.730469 381.53125 372.8125 387.449219 372.8125 394.726562 L 372.8125 459.828125 L 337.613281 459.828125 L 337.613281 310.894531 C 337.613281 303.617188 331.695312 297.699219 324.417969 297.699219 L 279.015625 297.699219 C 271.738281 297.699219 265.820312 303.617188 265.820312 310.894531 L 265.820312 459.828125 L 230.625 459.828125 L 230.625 226.84375 C 230.625 219.570312 224.703125 213.648438 217.425781 213.648438 L 172.027344 213.648438 C 164.75 213.648438 158.832031 219.570312 158.832031 226.84375 L 158.832031 459.828125 L 123.632812 459.828125 L 123.632812 223.277344 C 123.632812 219.132812 120.273438 215.777344 116.132812 215.777344 C 111.988281 215.777344 108.632812 219.132812 108.632812 223.277344 L 108.632812 459.828125 L 66.835938 459.828125 L 66.835938 145.035156 L 108.628906 145.035156 L 108.628906 188.378906 C 108.628906 192.519531 111.984375 195.878906 116.128906 195.878906 C 120.273438 195.878906 123.628906 192.519531 123.628906 188.378906 L 123.628906 143.230469 C 123.628906 135.953125 117.707031 130.035156 110.433594 130.035156 L 65.03125 130.035156 C 57.753906 130.035156 51.835938 135.953125 51.835938 143.230469 L 51.835938 459.828125 L 14.609375 459.828125 C 6.828125 459.828125 0.5 466.15625 0.5 473.933594 L 0.5 497.890625 C 0.5 505.671875 6.828125 512 14.609375 512 L 481.832031 512 C 489.613281 512 495.941406 505.671875 495.941406 497.890625 L 495.941406 473.933594 C 495.941406 466.15625 489.613281 459.828125 481.832031 459.828125 Z M 280.820312 312.699219 L 322.613281 312.699219 L 322.613281 459.824219 L 280.820312 459.824219 Z M 173.828125 228.648438 L 215.621094 228.648438 L 215.621094 459.828125 L 173.828125 459.828125 Z M 480.941406 497 L 15.5 497 L 15.5 474.828125 L 480.941406 474.828125 Z M 480.941406 497 " style=" stroke:none;fill-rule:nonzero;fill:rgb(0%,0%,0%);fill-opacity:1;" />
</g>
</svg>