<svg xmlns="http://www.w3.org/2000/svg" height="512pt" version="1.1" viewBox="0 -14 512 511" width="512pt">
<g id="surface1">
<path d="M 475.800781 242.148438 C 475.800781 371.464844 370.96875 476.300781 241.648438 476.300781 C 112.332031 476.300781 7.5 371.464844 7.5 242.148438 C 7.5 112.832031 112.332031 8 241.648438 8 C 370.96875 8 475.800781 112.832031 475.800781 242.148438 Z M 475.800781 242.148438 " style=" stroke:none;fill-rule:nonzero;fill:rgb(23.529412%,33.72549%,40%);fill-opacity:1;" />
<path d="M 241.648438 8 C 232.886719 8 224.238281 8.496094 215.726562 9.433594 C 332.839844 22.335938 423.949219 121.597656 423.949219 242.148438 C 423.949219 362.703125 332.839844 461.960938 215.726562 474.863281 C 224.238281 475.800781 232.886719 476.300781 241.648438 476.300781 C 370.96875 476.300781 475.800781 371.46875 475.800781 242.148438 C 475.800781 112.832031 370.96875 8 241.648438 8 Z M 241.648438 8 " style=" stroke:none;fill-rule:nonzero;fill:rgb(9.803922%,26.666667%,31.764706%);fill-opacity:1;" />
<path d="M 438.316406 242.148438 C 438.316406 350.765625 350.265625 438.8125 241.648438 438.8125 C 133.035156 438.8125 44.984375 350.765625 44.984375 242.148438 C 44.984375 133.535156 133.035156 45.484375 241.648438 45.484375 C 350.265625 45.484375 438.316406 133.535156 438.316406 242.148438 Z M 438.316406 242.148438 " style=" stroke:none;fill-rule:nonzero;fill:rgb(52.941176%,85.882353%,99.215686%);fill-opacity:1;" />
<path d="M 262.5625 242.148438 C 262.5625 254.007812 252.949219 263.617188 241.09375 263.617188 C 229.234375 263.617188 219.625 254.007812 219.625 242.148438 C 219.625 230.292969 229.234375 220.679688 241.09375 220.679688 C 252.949219 220.679688 262.5625 230.292969 262.5625 242.148438 Z M 262.5625 242.148438 " style=" stroke:none;fill-rule:nonzero;fill:rgb(99.607843%,81.568627%,40%);fill-opacity:1;" />
<path d="M 241.648438 45.484375 C 232.859375 45.484375 224.210938 46.070312 215.726562 47.1875 C 312.085938 59.878906 386.464844 142.324219 386.464844 242.148438 C 386.464844 341.976562 312.085938 424.421875 215.726562 437.109375 C 224.210938 438.226562 232.859375 438.8125 241.648438 438.8125 C 350.265625 438.8125 438.316406 350.765625 438.316406 242.148438 C 438.316406 133.535156 350.265625 45.484375 241.648438 45.484375 Z M 241.648438 45.484375 " style=" stroke:none;fill-rule:nonzero;fill:rgb(34.901961%,76.078431%,91.372549%);fill-opacity:1;" />
<path d="M 504.5 377.964844 C 504.5 432.273438 460.476562 476.300781 406.167969 476.300781 C 351.859375 476.300781 307.835938 432.273438 307.835938 377.964844 C 307.835938 323.65625 351.859375 279.632812 406.167969 279.632812 C 460.476562 279.632812 504.5 323.65625 504.5 377.964844 Z M 504.5 377.964844 " style=" stroke:none;fill-rule:nonzero;fill:rgb(93.333333%,33.72549%,27.45098%);fill-opacity:1;" />
<path d="M 406.167969 279.632812 C 397.191406 279.632812 388.503906 280.84375 380.242188 283.09375 C 421.96875 294.472656 452.648438 332.632812 452.648438 377.964844 C 452.648438 423.296875 421.96875 461.460938 380.242188 472.835938 C 388.503906 475.089844 397.191406 476.296875 406.167969 476.296875 C 460.476562 476.296875 504.5 432.273438 504.5 377.964844 C 504.5 323.660156 460.476562 279.632812 406.167969 279.632812 Z M 406.167969 279.632812 " style=" stroke:none;fill-rule:nonzero;fill:rgb(84.705882%,24.313725%,22.745098%);fill-opacity:1;" />
<path d="M 477.90625 377.964844 C 477.90625 417.585938 445.789062 449.707031 406.167969 449.707031 C 366.546875 449.707031 334.425781 417.585938 334.425781 377.964844 C 334.425781 338.34375 366.546875 306.226562 406.167969 306.226562 C 445.789062 306.226562 477.90625 338.34375 477.90625 377.964844 Z M 477.90625 377.964844 " style=" stroke:none;fill-rule:nonzero;fill:rgb(98.823529%,91.764706%,40.784314%);fill-opacity:1;" />
<path d="M 406.167969 306.226562 C 397.023438 306.226562 388.285156 307.953125 380.242188 311.074219 C 407.046875 321.46875 426.058594 347.488281 426.058594 377.964844 C 426.058594 408.441406 407.046875 434.460938 380.242188 444.855469 C 388.285156 447.976562 397.023438 449.707031 406.167969 449.707031 C 445.789062 449.707031 477.90625 417.585938 477.90625 377.964844 C 477.90625 338.34375 445.789062 306.226562 406.167969 306.226562 Z M 406.167969 306.226562 " style=" stroke:none;fill-rule:nonzero;fill:rgb(99.607843%,81.568627%,40%);fill-opacity:1;" />
<path d="M 404.355469 415.5 C 390.585938 415.277344 381.261719 407.839844 381.261719 402.398438 C 381.261719 399.734375 383.59375 396.070312 386.367188 396.070312 C 390.03125 396.070312 393.027344 403.839844 404.351562 404.730469 L 404.351562 378.640625 C 394.359375 375.085938 383.257812 371.089844 383.257812 356.878906 C 383.257812 342.890625 393.804688 337.339844 404.351562 336.230469 L 404.351562 333.007812 C 404.351562 331.675781 405.6875 330.453125 407.574219 330.453125 C 409.238281 330.453125 410.902344 331.675781 410.902344 333.007812 L 410.902344 336.007812 C 418.453125 336.230469 429.113281 338.558594 429.113281 344 C 429.113281 346.109375 427.558594 350.328125 424.226562 350.328125 C 421.5625 350.328125 418.675781 346.773438 410.902344 346.222656 L 410.902344 368.757812 C 420.5625 372.3125 431.109375 377.195312 431.109375 392.296875 C 431.109375 405.949219 422.894531 413.5 410.902344 415.164062 L 410.902344 418.941406 C 410.902344 420.273438 409.238281 421.492188 407.574219 421.492188 C 405.6875 421.492188 404.351562 420.273438 404.351562 418.941406 L 404.351562 415.5 Z M 405.019531 366.648438 L 405.019531 346.441406 C 398.804688 347.21875 394.363281 349.996094 394.363281 355.769531 C 394.359375 362.097656 399.136719 364.429688 405.019531 366.648438 Z M 410.238281 381.082031 L 410.238281 404.507812 C 416.234375 403.398438 420.007812 399.847656 420.007812 393.515625 C 420.007812 386.523438 415.679688 383.414062 410.238281 381.082031 Z M 410.238281 381.082031 " style=" stroke:none;fill-rule:nonzero;fill:rgb(0%,0%,0%);fill-opacity:1;" />
<path d="M 241.09375 108.566406 C 245.234375 108.566406 248.59375 105.210938 248.59375 101.066406 L 248.59375 81.359375 C 248.59375 77.214844 245.234375 73.859375 241.09375 73.859375 C 236.949219 73.859375 233.59375 77.214844 233.59375 81.359375 L 233.59375 101.066406 C 233.59375 105.210938 236.949219 108.566406 241.09375 108.566406 Z M 241.09375 108.566406 " style=" stroke:none;fill-rule:nonzero;fill:rgb(0%,0%,0%);fill-opacity:1;" />
<path d="M 233.59375 383.230469 L 233.59375 402.941406 C 233.59375 407.082031 236.949219 410.441406 241.09375 410.441406 C 245.234375 410.441406 248.59375 407.082031 248.59375 402.941406 L 248.59375 383.230469 C 248.59375 379.085938 245.234375 375.730469 241.09375 375.730469 C 236.949219 375.730469 233.59375 379.085938 233.59375 383.230469 Z M 233.59375 383.230469 " style=" stroke:none;fill-rule:nonzero;fill:rgb(0%,0%,0%);fill-opacity:1;" />
<path d="M 382.175781 234.648438 C 378.03125 234.648438 374.675781 238.007812 374.675781 242.148438 C 374.675781 246.292969 378.03125 249.648438 382.175781 249.648438 L 401.882812 249.648438 C 406.027344 249.648438 409.382812 246.292969 409.382812 242.148438 C 409.382812 238.007812 406.027344 234.648438 401.882812 234.648438 Z M 382.175781 234.648438 " style=" stroke:none;fill-rule:nonzero;fill:rgb(0%,0%,0%);fill-opacity:1;" />
<path d="M 80.300781 234.648438 C 76.160156 234.648438 72.800781 238.007812 72.800781 242.148438 C 72.800781 246.292969 76.160156 249.648438 80.300781 249.648438 L 100.011719 249.648438 C 104.152344 249.648438 107.511719 246.292969 107.511719 242.148438 C 107.511719 238.007812 104.152344 234.648438 100.011719 234.648438 Z M 80.300781 234.648438 " style=" stroke:none;fill-rule:nonzero;fill:rgb(0%,0%,0%);fill-opacity:1;" />
<path d="M 342.515625 130.117188 L 335.550781 137.085938 C 332.621094 140.015625 332.621094 144.765625 335.550781 147.691406 C 337.015625 149.15625 338.933594 149.890625 340.851562 149.890625 C 342.773438 149.890625 344.691406 149.15625 346.15625 147.691406 L 353.125 140.726562 C 356.054688 137.796875 356.054688 133.046875 353.125 130.117188 C 350.195312 127.191406 345.445312 127.191406 342.515625 130.117188 Z M 342.515625 130.117188 " style=" stroke:none;fill-rule:nonzero;fill:rgb(0%,0%,0%);fill-opacity:1;" />
<path d="M 136.03125 336.605469 L 129.0625 343.574219 C 126.132812 346.503906 126.132812 351.25 129.0625 354.179688 C 130.523438 355.644531 132.445312 356.375 134.363281 356.375 C 136.285156 356.375 138.203125 355.644531 139.667969 354.179688 L 146.636719 347.210938 C 149.566406 344.28125 149.566406 339.535156 146.636719 336.605469 C 143.707031 333.675781 138.960938 333.675781 136.03125 336.605469 Z M 136.03125 336.605469 " style=" stroke:none;fill-rule:nonzero;fill:rgb(0%,0%,0%);fill-opacity:1;" />
<path d="M 146.636719 137.085938 L 139.667969 130.117188 C 136.738281 127.191406 131.988281 127.1875 129.0625 130.117188 C 126.132812 133.046875 126.132812 137.796875 129.0625 140.726562 L 136.03125 147.691406 C 137.496094 149.15625 139.414062 149.890625 141.335938 149.890625 C 143.253906 149.890625 145.171875 149.15625 146.636719 147.691406 C 149.566406 144.761719 149.566406 140.015625 146.636719 137.085938 Z M 146.636719 137.085938 " style=" stroke:none;fill-rule:nonzero;fill:rgb(0%,0%,0%);fill-opacity:1;" />
<path d="M 406.167969 272.132812 C 347.8125 272.132812 300.335938 319.609375 300.335938 377.964844 C 300.335938 436.320312 347.8125 483.796875 406.167969 483.796875 C 464.523438 483.796875 512 436.324219 512 377.964844 C 512 319.609375 464.523438 272.132812 406.167969 272.132812 Z M 406.167969 468.796875 C 356.082031 468.796875 315.335938 428.050781 315.335938 377.964844 C 315.335938 327.878906 356.082031 287.132812 406.167969 287.132812 C 456.253906 287.132812 497 327.878906 497 377.964844 C 497 428.050781 456.253906 468.796875 406.167969 468.796875 Z M 406.167969 468.796875 " style=" stroke:none;fill-rule:nonzero;fill:rgb(0%,0%,0%);fill-opacity:1;" />
<path d="M 406.167969 298.726562 C 362.472656 298.726562 326.925781 334.273438 326.925781 377.964844 C 326.925781 421.660156 362.472656 457.207031 406.167969 457.207031 C 449.859375 457.207031 485.40625 421.660156 485.40625 377.964844 C 485.40625 334.273438 449.859375 298.726562 406.167969 298.726562 Z M 406.167969 442.207031 C 370.746094 442.207031 341.925781 413.390625 341.925781 377.96875 C 341.925781 342.542969 370.746094 313.726562 406.167969 313.726562 C 441.589844 313.726562 470.40625 342.542969 470.40625 377.96875 C 470.40625 413.386719 441.589844 442.207031 406.167969 442.207031 Z M 406.167969 442.207031 " style=" stroke:none;fill-rule:nonzero;fill:rgb(0%,0%,0%);fill-opacity:1;" />
<path d="M 438.058594 254.734375 C 438.125 254.734375 438.1875 254.734375 438.253906 254.734375 C 442.308594 254.734375 445.644531 251.503906 445.746094 247.425781 C 445.792969 245.679688 445.8125 243.90625 445.8125 242.148438 C 445.8125 129.570312 354.226562 37.984375 241.648438 37.984375 C 129.070312 37.984375 37.484375 129.570312 37.484375 242.148438 C 37.484375 354.726562 129.070312 446.3125 241.648438 446.3125 C 256.429688 446.3125 271.183594 444.722656 285.5 441.589844 C 289.546875 440.703125 292.109375 436.703125 291.222656 432.65625 C 290.335938 428.609375 286.339844 426.046875 282.289062 426.933594 C 269.027344 429.839844 255.351562 431.3125 241.648438 431.3125 C 137.34375 431.3125 52.484375 346.453125 52.484375 242.148438 C 52.484375 137.84375 137.34375 52.984375 241.648438 52.984375 C 345.953125 52.984375 430.8125 137.84375 430.8125 242.148438 C 430.8125 243.785156 430.792969 245.417969 430.75 247.046875 C 430.648438 251.183594 433.917969 254.628906 438.058594 254.734375 Z M 438.058594 254.734375 " style=" stroke:none;fill-rule:nonzero;fill:rgb(0%,0%,0%);fill-opacity:1;" />
<path d="M 303.597656 460.230469 C 283.539062 465.914062 262.699219 468.796875 241.648438 468.796875 C 181.109375 468.796875 124.191406 445.222656 81.386719 402.414062 C 38.574219 359.605469 15 302.6875 15 242.148438 C 15 181.609375 38.574219 124.691406 81.382812 81.882812 C 124.191406 39.074219 181.109375 15.5 241.648438 15.5 C 302.1875 15.5 359.105469 39.074219 401.914062 81.882812 C 444.722656 124.691406 468.300781 181.609375 468.300781 242.148438 C 468.300781 248.648438 468.019531 255.203125 467.472656 261.628906 C 467.117188 265.757812 470.179688 269.386719 474.304688 269.738281 C 478.441406 270.085938 482.066406 267.03125 482.417969 262.90625 C 483.003906 256.054688 483.300781 249.070312 483.300781 242.148438 C 483.300781 177.601562 458.164062 116.917969 412.523438 71.277344 C 366.882812 25.636719 306.195312 0.5 241.648438 0.5 C 177.101562 0.5 116.417969 25.636719 70.777344 71.277344 C 25.136719 116.917969 0 177.601562 0 242.148438 C 0 306.695312 25.136719 367.378906 70.777344 413.019531 C 116.417969 458.664062 177.101562 483.796875 241.648438 483.796875 C 264.082031 483.796875 286.300781 480.722656 307.6875 474.660156 C 311.671875 473.53125 313.988281 469.382812 312.859375 465.398438 C 311.730469 461.414062 307.585938 459.101562 303.597656 460.230469 Z M 303.597656 460.230469 " style=" stroke:none;fill-rule:nonzero;fill:rgb(0%,0%,0%);fill-opacity:1;" />
<path d="M 296.78125 308.445312 C 298.246094 309.90625 300.164062 310.640625 302.085938 310.640625 C 304.003906 310.640625 305.921875 309.90625 307.386719 308.445312 C 310.316406 305.515625 310.316406 300.765625 307.386719 297.835938 L 266.171875 256.621094 C 268.640625 252.359375 270.0625 247.417969 270.0625 242.148438 C 270.0625 228.769531 260.941406 217.484375 248.59375 214.171875 L 248.59375 135.421875 C 248.59375 131.277344 245.234375 127.921875 241.09375 127.921875 C 236.949219 127.921875 233.59375 131.277344 233.59375 135.421875 L 233.59375 214.171875 C 221.242188 217.484375 212.125 228.769531 212.125 242.148438 C 212.125 258.121094 225.121094 271.117188 241.09375 271.117188 C 246.363281 271.117188 251.304688 269.699219 255.566406 267.230469 Z M 241.09375 256.117188 C 233.390625 256.117188 227.125 249.851562 227.125 242.148438 C 227.125 234.445312 233.390625 228.179688 241.09375 228.179688 C 248.796875 228.179688 255.0625 234.445312 255.0625 242.148438 C 255.0625 249.851562 248.796875 256.117188 241.09375 256.117188 Z M 241.09375 256.117188 " style=" stroke:none;fill-rule:nonzero;fill:rgb(0%,0%,0%);fill-opacity:1;" />
</g>
</svg>